<svg width="89" height="24" viewBox="0 0 89 24" fill="none" xmlns="http://www.w3.org/2000/svg">
<path d="M0 18.4082V18.5567H9.33252C14.52 18.5567 18.4168 15.5629 18.4168 9.89691C18.4168 4.23093 14.52 1.23711 9.33252 1.23711H0V1.38557C1.88636 1.38557 1.98564 1.38557 1.98564 2.12784V17.666C1.98564 18.4082 1.88636 18.4082 0 18.4082ZM7.44616 17.666V2.12784C7.44616 1.38557 7.54544 1.38557 8.68718 1.38557H9.33252C11.7897 1.38557 12.7081 4.9732 12.7081 9.89691C12.7081 14.8206 11.7897 18.4082 9.33252 18.4082H8.68718C7.54544 18.4082 7.44616 18.4082 7.44616 17.666Z" fill="white"/>
<path d="M27.352 18.8041C31.7949 18.8041 33.4579 15.1918 33.7061 12.2474H33.5572C33.309 15.0928 32.0431 16.8247 29.8341 16.8247C27.4017 16.8247 25.6394 14.8454 25.6146 10.9608H33.9543V10.8124H32.0679C32.0679 7.86804 29.9085 5.4433 26.4833 5.4433C23.3063 5.4433 20.4023 7.69485 20.4023 11.8763C20.4023 16.3052 23.1574 18.8041 27.352 18.8041ZM25.6146 10.8124C25.6146 6.68041 25.7883 5.59175 26.4833 5.59175C27.1783 5.59175 27.352 6.95258 27.352 10.8124H25.6146Z" fill="white"/>
<path d="M35.7778 18.8041H35.9267C35.9019 18.2351 35.9516 17.8887 36.3487 17.8887C36.994 17.8887 37.7138 18.8041 40.7171 18.8041C43.6956 18.8041 46.1528 17.0969 46.1528 14.1773C46.1528 8.0165 38.3095 10.5402 38.3095 7.22474C38.3095 6.30928 39.1782 5.59175 40.4937 5.59175C43.0006 5.59175 45.16 8.61031 45.2593 10.1443H45.4082L45.0855 5.4433H44.9366C44.9614 6.01237 44.9118 6.35876 44.5146 6.35876C43.8693 6.35876 43.0006 5.4433 40.4937 5.4433C37.7635 5.4433 35.3062 7.15052 35.3062 9.82268C35.3062 15.7361 43.1495 13.2124 43.1495 16.7753C43.1495 17.9381 42.2808 18.6557 40.7171 18.6557C37.7138 18.6557 35.7034 14.8948 35.6041 13.3608H35.4552L35.7778 18.8041Z" fill="white"/>
<path d="M46.9021 18.4082V18.5567H55.8375V18.4082C53.9511 18.4082 53.8518 18.4082 53.8518 17.666V5.69072H46.9021V5.83918C48.7884 5.83918 48.8877 5.83918 48.8877 6.58144V17.666C48.8877 18.4082 48.7884 18.4082 46.9021 18.4082ZM49.0366 2.32577C49.0366 3.71134 49.9798 4.65155 51.3698 4.65155C52.7597 4.65155 53.7029 3.71134 53.7029 2.32577C53.7029 0.940207 52.7597 0 51.3698 0C49.9798 0 49.0366 0.940207 49.0366 2.32577Z" fill="white"/>
<path d="M63.926 24C68.5675 24 71.2729 21.8474 71.2729 18.9773C71.2729 15.5629 68.5178 14.6227 64.348 14.8948C60.203 15.167 58.7385 15.167 58.7385 14.2515C58.7385 13.9546 58.9371 13.7072 59.3839 13.4351C60.476 14.0784 61.9652 14.4 63.8019 14.4C67.8477 14.4 70.2801 12.7423 70.2801 9.92165C70.2801 7.89278 68.9894 6.43299 66.7556 5.81443C65.8869 5.4433 65.6386 4.55258 65.6386 3.95876C65.6386 2.77114 66.6563 1.88041 67.7732 1.88041C68.1455 1.88041 68.2696 2.07835 68.2696 2.32577C68.2696 2.82062 67.3016 3.16701 67.3016 4.25567C67.3016 5.31959 68.0462 6.0866 69.1632 6.0866C70.2553 6.0866 71.0247 5.31959 71.0247 4.25567C71.0247 2.96907 70.0815 1.73196 67.7732 1.73196C66.5818 1.73196 65.4897 2.69691 65.4897 3.95876C65.4897 4.50309 65.6883 5.29485 66.284 5.69072C65.5394 5.54227 64.6955 5.4433 63.8019 5.4433C59.7562 5.4433 57.3238 7.10103 57.3238 9.92165C57.3238 11.4062 57.9939 12.5938 59.235 13.3608C58.3166 13.9052 56.331 15.6371 56.331 18.2845C56.331 21.9711 58.813 24 63.926 24ZM56.4799 18.2845C56.4799 16.3794 57.5223 14.9938 58.4407 14.1526C57.7954 14.9938 57.299 16.0577 57.299 17.1217C57.299 20.0165 59.4583 20.1155 63.6034 19.8433C67.7732 19.5711 68.2944 20.3629 68.2944 21.4515C68.2944 22.8371 66.5818 23.8515 63.926 23.8515C58.8875 23.8515 56.4799 21.8969 56.4799 18.2845ZM62.5361 9.92165C62.5361 7.34845 62.685 5.59175 63.8019 5.59175C64.9189 5.59175 65.0678 7.34845 65.0678 9.92165C65.0678 12.4948 64.9189 14.2515 63.8019 14.2515C62.685 14.2515 62.5361 12.4948 62.5361 9.92165Z" fill="white"/>
<path d="M80.8092 18.4082V18.5567H89V18.4082C87.1136 18.4082 87.0144 18.4082 87.0144 17.666V8.9567C87.0144 6.48247 85.5499 5.4433 83.5643 5.4433C81.2064 5.4433 79.1463 6.87835 78.5754 9.10515V5.69072H71.6256V5.83918C73.512 5.83918 73.6113 5.83918 73.6113 6.58144V17.666C73.6113 18.4082 73.512 18.4082 71.6256 18.4082V18.5567H79.8164V18.4082C78.6747 18.4082 78.5754 18.4082 78.5754 17.666V10.3175C78.5754 8.06598 80.0894 6.68041 80.8837 6.68041C81.8765 6.68041 82.0503 7.71959 82.0503 9.45155V17.666C82.0503 18.4082 81.951 18.4082 80.8092 18.4082Z" fill="white"/>
</svg>
