<svg width="51" height="24" viewBox="0 0 51 24" fill="none" xmlns="http://www.w3.org/2000/svg">
<path d="M3.17485 20.5785C3.12437 20.5949 3.08231 20.5949 3.04866 20.5785C3.01501 20.5785 2.96454 20.5785 2.89724 20.5785C2.79629 20.6113 2.71216 20.6195 2.64486 20.6031C2.61121 20.6031 2.56074 20.5785 2.49344 20.5292C2.44297 20.48 2.4009 20.439 2.36725 20.4062C2.28313 20.4226 2.22424 20.4144 2.19059 20.3815C2.17377 20.3487 2.14853 20.3159 2.11488 20.2831C2.04758 20.201 2.01393 20.0862 2.01393 19.9385C2.03076 19.7908 2.056 19.6185 2.08964 19.4215C2.14012 19.241 2.19059 19.0523 2.24107 18.8554C2.30837 18.6749 2.36725 18.5026 2.41773 18.3385C2.50185 18.0267 2.6028 17.6821 2.72058 17.3046C2.85518 16.9272 2.97295 16.5826 3.0739 16.2708C3.35992 15.5323 3.61229 14.8267 3.83102 14.1538C4.04974 13.481 4.30211 12.8164 4.58813 12.16C4.87416 11.4708 5.14335 10.7979 5.39573 10.1415C5.6481 9.48513 5.91729 8.84513 6.20332 8.22154C6.32109 7.90974 6.44728 7.58974 6.58188 7.26154C6.71648 6.93333 6.85107 6.59692 6.98567 6.25231C7.12027 5.9241 7.25487 5.6041 7.38947 5.29231C7.52407 4.98051 7.63343 4.66872 7.71755 4.35692C7.73438 4.27487 7.73438 4.20103 7.71755 4.13538C7.71755 4.05333 7.73438 3.97128 7.76803 3.88923C7.83533 3.79077 7.9531 3.70051 8.12135 3.61846C8.30642 3.53641 8.45785 3.48718 8.57562 3.47077C8.74387 3.43795 8.92053 3.45436 9.1056 3.52C9.29068 3.56923 9.45892 3.65128 9.61035 3.76615C9.76177 3.86461 9.87955 3.98769 9.96367 4.13538C10.0478 4.28308 10.0814 4.43077 10.0646 4.57846C10.031 4.77538 9.94684 4.94769 9.81225 5.09538C9.69447 5.24308 9.58511 5.39897 9.48416 5.56308C9.24861 5.94051 9.02989 6.33436 8.82799 6.74461C8.62609 7.15487 8.4242 7.57333 8.2223 8C7.93628 8.54154 7.67549 9.1159 7.43994 9.72308C7.22122 10.3303 6.96885 10.9292 6.68283 11.52C6.3968 12.1108 6.14443 12.7015 5.92571 13.2923C5.79111 13.5877 5.65651 13.8913 5.52191 14.2031C5.40414 14.4985 5.30319 14.8021 5.21907 15.1138C5.11812 15.4256 5.00034 15.7374 4.86574 16.0492C4.74797 16.3446 4.62178 16.6564 4.48718 16.9846C4.36941 17.2964 4.26005 17.6 4.1591 17.8954C4.05815 18.2072 3.94038 18.5108 3.80578 18.8062C3.77213 18.9046 3.72165 19.0031 3.65435 19.1015C3.60388 19.2164 3.56182 19.3231 3.52817 19.4215C3.44404 19.6021 3.37674 19.7908 3.32627 19.9877C3.2758 20.1846 3.22532 20.3815 3.17485 20.5785ZM17.661 1.50154V1.52615C17.6274 1.57538 17.6021 1.59179 17.5853 1.57538C17.5853 1.54256 17.5769 1.54256 17.5601 1.57538C17.1899 1.49333 16.8198 1.4441 16.4496 1.42769C16.0795 1.41128 15.7094 1.42769 15.3392 1.47692C14.9691 1.50974 14.5989 1.55897 14.2288 1.62461C13.8754 1.67385 13.5221 1.73128 13.1688 1.79692C12.4453 1.9282 11.7219 2.06769 10.9984 2.21538C10.2918 2.36308 9.56828 2.51897 8.82799 2.68308C8.67657 2.7159 8.49991 2.74872 8.29801 2.78154C8.11294 2.81436 7.92786 2.84718 7.74279 2.88C7.22122 3.01128 6.69124 3.15897 6.15284 3.32308C5.61445 3.47077 5.07605 3.65949 4.53766 3.88923C4.20116 3.97128 3.84784 4.09436 3.47769 4.25846C3.12437 4.40615 2.77105 4.57846 2.41773 4.77538C2.23266 4.85744 2.04758 4.94769 1.86251 5.04615C1.69426 5.14461 1.50919 5.23487 1.30729 5.31692C1.13904 5.41538 0.953968 5.50564 0.75207 5.58769C0.566997 5.66974 0.390336 5.66154 0.222088 5.56308C0.154788 5.51385 0.0959015 5.44 0.045427 5.34154C-0.00504746 5.22667 -0.0134599 5.09538 0.0201898 4.94769C0.188438 4.73436 0.365099 4.57846 0.550172 4.48C0.735245 4.36513 0.920319 4.25846 1.10539 4.16C1.66061 3.86461 2.21583 3.60205 2.77105 3.37231C3.32627 3.12615 3.87308 2.8882 4.41147 2.65846C5.11812 2.33026 5.83317 2.03487 6.55664 1.77231C7.29693 1.49333 8.03722 1.23077 8.77752 0.984614C9.16449 0.886153 9.53464 0.795897 9.88796 0.713846C10.2413 0.631795 10.6114 0.549743 10.9984 0.467692C11.7219 0.32 12.4537 0.205128 13.194 0.123077C13.9343 0.0410256 14.683 0 15.4402 0C15.6084 0.0328201 15.7767 0.0492301 15.9449 0.0492301C16.13 0.0328201 16.3235 0.0410251 16.5254 0.0738452C16.7609 0.139486 16.988 0.205128 17.2068 0.270769C17.4255 0.33641 17.6442 0.492307 17.8629 0.738461C17.8629 0.771282 17.8461 0.771282 17.8125 0.738461C17.7788 0.689231 17.7536 0.705641 17.7367 0.787692C17.7367 0.853333 17.7536 0.902563 17.7872 0.935384C17.8377 0.951794 17.8461 0.968204 17.8125 0.984614C17.8125 1.01744 17.7872 1.03385 17.7367 1.03385C17.7367 1.1159 17.7367 1.16513 17.7367 1.18154C17.7536 1.19795 17.7536 1.23077 17.7367 1.28C17.7199 1.32923 17.7115 1.33744 17.7115 1.30461C17.7115 1.27179 17.6947 1.28821 17.661 1.35385C17.6442 1.41949 17.6442 1.46051 17.661 1.47692C17.6947 1.47692 17.6947 1.48513 17.661 1.50154Z" fill="white"/>
<path d="M10.7995 15.68C10.8499 15.7292 10.9929 15.7128 11.2285 15.6308C11.464 15.5323 11.7501 15.4092 12.0866 15.2615C12.4399 15.0974 12.8268 14.9169 13.2475 14.72C13.6681 14.5231 14.0887 14.3508 14.5093 14.2031C14.6271 14.1703 14.7617 14.121 14.9131 14.0554C15.0814 13.9897 15.2076 13.9323 15.2917 13.8831C15.4263 13.801 15.5609 13.719 15.6955 13.6369C15.8301 13.5549 15.9899 13.4974 16.175 13.4646C16.2423 13.4482 16.2759 13.4236 16.2759 13.3908C16.2759 13.3415 16.2844 13.3497 16.3012 13.4154C16.3348 13.4318 16.3601 13.44 16.3769 13.44C16.3937 13.4236 16.4105 13.4236 16.4274 13.44C16.4274 13.5056 16.3853 13.5959 16.3012 13.7108L16.1245 13.8585C15.9899 13.9733 15.8469 14.0882 15.6955 14.2031C15.5441 14.3015 15.3758 14.3918 15.1907 14.4738C15.0393 14.6051 14.8542 14.7282 14.6355 14.8431C14.4336 14.9579 14.2317 15.0646 14.0298 15.1631C13.8448 15.2287 13.5756 15.3764 13.2222 15.6062C12.8857 15.8359 12.524 16.0738 12.137 16.32C11.7669 16.5662 11.422 16.7877 11.1023 16.9846C10.7826 17.1651 10.5639 17.2308 10.4461 17.1815C10.3957 17.2308 10.362 17.2472 10.3452 17.2308C10.3284 17.2308 10.2947 17.2308 10.2442 17.2308C9.97504 17.2308 9.73949 17.2062 9.53759 17.1569C9.35252 17.0913 9.19268 16.9682 9.05808 16.7877C9.00761 16.5908 9.00761 16.3938 9.05808 16.1969C9.10856 16 9.17586 15.7785 9.25998 15.5323C9.31046 15.401 9.36093 15.2779 9.41141 15.1631C9.47871 15.0482 9.52918 14.9251 9.56283 14.7938C9.63013 14.6626 9.69743 14.5231 9.76473 14.3754C9.83203 14.2277 9.89091 14.0882 9.94139 13.9569C10.1265 13.5795 10.3199 13.2021 10.5218 12.8246C10.7237 12.4308 10.9425 12.0697 11.178 11.7415C11.3126 11.6595 11.4388 11.6103 11.5566 11.5938C11.6239 11.561 11.6912 11.5692 11.7585 11.6185C11.8426 11.6513 11.9099 11.6513 11.9604 11.6185C12.0108 11.6841 12.0613 11.7415 12.1118 11.7908C12.1791 11.84 12.2212 11.9056 12.238 11.9877C12.2548 12.1026 12.2632 12.1928 12.2632 12.2585C12.28 12.3241 12.2716 12.3979 12.238 12.48C12.2548 12.5949 12.2212 12.7179 12.137 12.8492C12.1034 12.8985 12.0781 12.9559 12.0613 13.0215C12.0445 13.0708 12.0193 13.1282 11.9856 13.1938C11.9688 13.2103 11.952 13.2185 11.9351 13.2185C11.9351 13.2021 11.9267 13.2021 11.9099 13.2185C11.8762 13.2349 11.8594 13.2595 11.8594 13.2923C11.8594 13.3251 11.8426 13.3497 11.8089 13.3662C11.6912 13.5959 11.565 13.8338 11.4304 14.08C11.2958 14.3262 11.1696 14.5641 11.0518 14.7938C10.9341 15.0072 10.8499 15.1959 10.7995 15.36C10.749 15.5241 10.749 15.6308 10.7995 15.68ZM11.8342 9.67385C11.8174 9.62461 11.8594 9.53436 11.9604 9.40308C12.0613 9.27179 12.1791 9.14872 12.3137 9.03384C12.4483 8.91897 12.5829 8.83692 12.7175 8.78769C12.8521 8.73846 12.9614 8.76308 13.0456 8.86154C13.0792 8.86154 13.1045 8.86974 13.1213 8.88615C13.1549 8.90256 13.1802 8.91077 13.197 8.91077C13.3148 9.04205 13.3484 9.20615 13.2979 9.40308C13.2643 9.58359 13.1802 9.70667 13.0456 9.77231C13.0624 9.80513 13.0624 9.82974 13.0456 9.84615C13.0287 9.84615 13.0203 9.86256 13.0203 9.89538C12.9699 9.86256 12.9446 9.87897 12.9446 9.94462C12.9614 10.0103 12.9362 10.0267 12.8689 9.99384C12.8857 10.0431 12.8605 10.0923 12.7932 10.1415C12.7427 10.1908 12.7175 10.24 12.7175 10.2892C12.6838 10.2728 12.667 10.2728 12.667 10.2892C12.667 10.2892 12.6502 10.2892 12.6165 10.2892C12.5829 10.3713 12.5072 10.4369 12.3894 10.4862C12.2885 10.519 12.2127 10.5682 12.1623 10.6338C12.1286 10.6338 12.095 10.6421 12.0613 10.6585C12.0445 10.6749 12.0024 10.6667 11.9351 10.6338C11.8342 10.601 11.7669 10.5518 11.7332 10.4862C11.6996 10.4041 11.6828 10.3138 11.6828 10.2154C11.6996 10.1169 11.7248 10.0185 11.7585 9.92C11.7921 9.82154 11.8174 9.73949 11.8342 9.67385Z" fill="white"/>
<path d="M31.105 14.9169C31.1723 14.9497 31.2648 14.9579 31.3826 14.9415C31.5004 14.9251 31.5929 14.9087 31.6602 14.8923C31.7443 14.8759 31.7864 14.8841 31.7864 14.9169C31.8032 14.9333 31.7359 14.9908 31.5845 15.0892C31.4836 15.1713 31.3994 15.2451 31.3321 15.3108C31.2648 15.36 31.1807 15.4256 31.0798 15.5077C31.0798 15.5241 31.0629 15.5487 31.0293 15.5815C31.0125 15.5979 30.9956 15.6062 30.9788 15.6062C30.7264 15.9836 30.3226 16.2954 29.7674 16.5415C29.229 16.7877 28.6149 17.001 27.9251 17.1815C27.74 17.2144 27.5381 17.239 27.3194 17.2554C27.1007 17.2718 26.882 17.2472 26.6632 17.1815L26.5623 17.0585C26.4445 17.0585 26.352 17.0338 26.2847 16.9846C26.2342 16.9354 26.1669 16.8862 26.0828 16.8369C26.0491 16.7549 26.0155 16.6728 25.9818 16.5908C25.9482 16.4923 25.9314 16.3692 25.9314 16.2215C25.9314 16.1887 25.9314 16.1313 25.9314 16.0492C25.9314 15.9672 25.9398 15.8851 25.9566 15.8031C25.9734 15.5733 26.0323 15.3436 26.1333 15.1138C26.2342 14.8677 26.3352 14.6297 26.4361 14.4C26.4698 14.2523 26.5455 14.0472 26.6632 13.7846C26.7978 13.5056 26.9156 13.2431 27.0166 12.9969C27.1175 12.7508 27.1848 12.5621 27.2185 12.4308C27.2521 12.2995 27.1848 12.2913 27.0166 12.4062C26.9324 12.4882 26.8399 12.5538 26.739 12.6031C26.6548 12.6359 26.5875 12.6933 26.5371 12.7754C26.4025 12.8574 26.2763 12.9313 26.1585 12.9969C26.0407 13.0626 25.9398 13.1528 25.8556 13.2677C25.6033 13.4318 25.393 13.5959 25.2247 13.76C24.8209 14.0882 24.4424 14.4246 24.089 14.7692C23.7525 15.1138 23.4076 15.4421 23.0543 15.7538C22.9029 15.9344 22.7599 16.0656 22.6253 16.1477C22.5412 16.2462 22.4654 16.3282 22.3981 16.3938C22.3477 16.4431 22.2888 16.4841 22.2215 16.5169C22.1542 16.5497 22.0785 16.5744 21.9943 16.5908C21.9102 16.5908 21.7924 16.5908 21.641 16.5908C21.5401 16.5415 21.4307 16.5251 21.3129 16.5415C21.1952 16.4759 21.1026 16.4185 21.0353 16.3692C20.968 16.32 20.9176 16.2708 20.8839 16.2215C20.8671 16.1723 20.8587 16.1067 20.8587 16.0246C20.8755 15.9426 20.9091 15.8359 20.9596 15.7046C20.9428 15.6882 20.9344 15.6554 20.9344 15.6062C20.9176 15.4256 20.9344 15.1959 20.9849 14.9169C21.0353 14.6379 21.0942 14.3508 21.1615 14.0554C21.2288 13.76 21.2877 13.481 21.3382 13.2185C21.4055 12.9395 21.4223 12.7179 21.3887 12.5538C21.3718 12.3897 21.2961 12.3077 21.1615 12.3077C21.0437 12.3077 20.8418 12.4308 20.5558 12.6769C20.0679 13.0708 19.5884 13.4892 19.1173 13.9323C18.6462 14.3754 18.1667 14.8349 17.6788 15.3108C17.4937 15.4913 17.317 15.6882 17.1488 15.9015C16.9805 16.0985 16.7618 16.2379 16.4926 16.32C16.4422 16.4021 16.3833 16.4841 16.316 16.5662C16.2487 16.6482 16.1982 16.7549 16.1645 16.8862C16.0804 17.0338 16.0131 17.1815 15.9626 17.3292C15.9122 17.4933 15.7607 17.5918 15.5084 17.6246C15.3738 17.6574 15.2055 17.6246 15.0036 17.5262C14.8186 17.4441 14.7008 17.3374 14.6503 17.2062C14.6335 17.1405 14.6419 17.0421 14.6755 16.9108C14.7092 16.7631 14.7428 16.6318 14.7765 16.5169C14.9279 15.9262 15.1466 15.2533 15.4327 14.4985C15.7355 13.7272 15.9963 12.8328 16.215 11.8154C16.2487 11.7005 16.3328 11.6103 16.4674 11.5446C16.6356 11.3969 16.8459 11.3477 17.0983 11.3969C17.3507 11.4462 17.5105 11.5446 17.5778 11.6923C17.6283 11.8072 17.6199 12.0123 17.5526 12.3077C17.5021 12.5867 17.4264 12.8821 17.3255 13.1938C17.2413 13.5056 17.1488 13.7928 17.0478 14.0554C16.9637 14.3179 16.9132 14.4821 16.8964 14.5477C17.0142 14.5149 17.1151 14.4574 17.1993 14.3754C17.3002 14.2933 17.3928 14.2113 17.4769 14.1292C17.9143 13.7026 18.3349 13.2841 18.7387 12.8738C19.1594 12.4472 19.6389 12.0451 20.1773 11.6677C20.3623 11.5528 20.5726 11.4215 20.8082 11.2738C21.0606 11.1262 21.3045 11.0359 21.5401 11.0031C21.7251 10.9867 21.9186 11.0359 22.1205 11.1508C22.3393 11.2656 22.4654 11.4051 22.4991 11.5692C22.5664 12.0944 22.5748 12.6195 22.5243 13.1446C22.4907 13.6697 22.4318 14.2195 22.3477 14.7938C22.3813 14.7774 22.4402 14.7446 22.5243 14.6954C22.6085 14.6297 22.6505 14.6051 22.6505 14.6215C22.7851 14.5887 22.8945 14.5313 22.9786 14.4492C23.0627 14.3508 23.1468 14.2605 23.231 14.1785C23.6684 13.7518 24.1227 13.3497 24.5938 12.9723C25.0817 12.5785 25.5864 12.201 26.108 11.84C26.3099 11.7087 26.5286 11.5856 26.7642 11.4708C27.0166 11.3559 27.2689 11.2738 27.5213 11.2246C27.6727 11.1918 27.8157 11.1918 27.9503 11.2246C28.0849 11.2574 28.2195 11.2903 28.3541 11.3231C28.5897 11.4544 28.7159 11.6349 28.7327 11.8646C28.7495 12.0944 28.7075 12.3405 28.6065 12.6031C28.5056 12.8656 28.3794 13.1364 28.2279 13.4154C28.0765 13.6944 27.9588 13.9569 27.8746 14.2031C27.74 14.4328 27.6559 14.6462 27.6223 14.8431C27.5886 15.04 27.5129 15.2615 27.3951 15.5077C27.3446 15.5897 27.3026 15.6882 27.2689 15.8031C27.2353 15.9015 27.21 15.9918 27.1932 16.0738C27.1932 16.2215 27.2689 16.2954 27.4204 16.2954C27.5886 16.2954 27.7821 16.2626 28.0008 16.1969C28.2364 16.1149 28.4719 16.0246 28.7075 15.9262C28.943 15.8277 29.1281 15.7538 29.2627 15.7046C29.3973 15.6554 29.4898 15.6226 29.5403 15.6062C29.6076 15.5897 29.6581 15.5733 29.6917 15.5569C29.7254 15.5405 29.7674 15.5241 29.8179 15.5077C29.8684 15.4913 29.9609 15.4503 30.0955 15.3846C30.2133 15.319 30.3058 15.2697 30.3731 15.2369C30.4404 15.1877 30.5077 15.1549 30.575 15.1385C30.6423 15.1056 30.7096 15.081 30.7769 15.0646C30.861 15.0318 30.9704 14.9826 31.105 14.9169Z" fill="white"/>
<path d="M37.912 9.99384C37.8278 9.91179 37.7437 9.79692 37.6596 9.64923C37.5923 9.50154 37.5082 9.38667 37.4072 9.30461C37.4072 9.23897 37.4072 9.20615 37.4072 9.20615C37.4072 9.17333 37.3904 9.17333 37.3567 9.20615C37.3231 9.22256 37.3063 9.21436 37.3063 9.18154C37.239 8.93538 37.1296 8.69744 36.9782 8.46769C36.9782 8.45128 36.9445 8.42667 36.8772 8.39385C36.8436 8.37744 36.8352 8.36102 36.852 8.34461C36.8856 8.31179 36.8941 8.27897 36.8772 8.24615C36.7595 8.03282 36.6333 7.81949 36.4987 7.60615C36.3641 7.39282 36.2295 7.17949 36.0949 6.96615C35.8257 6.49026 35.5649 5.99795 35.3125 5.48923C35.0601 4.98051 34.833 4.46359 34.6311 3.93846L34.4292 3.29846C34.4124 3.2 34.3787 3.09333 34.3283 2.97846C34.2946 2.84718 34.2778 2.74051 34.2778 2.65846C34.261 2.60923 34.2694 2.5682 34.303 2.53538C34.3367 2.48615 34.3535 2.42872 34.3535 2.36308C34.3703 2.29744 34.3703 2.24 34.3535 2.19077C34.3367 2.12513 34.3367 2.0759 34.3535 2.04308C34.4208 1.94461 34.4965 1.87897 34.5806 1.84615C34.6816 1.81333 34.7994 1.78872 34.934 1.77231C35.2032 2.03487 35.4051 2.35487 35.5397 2.73231C35.6911 3.10974 35.893 3.42974 36.1453 3.69231C36.3809 4.1682 36.6501 4.61949 36.9529 5.04615C37.2558 5.47282 37.5502 5.9241 37.8362 6.4L39.3757 9.23077C40.1328 8.54154 40.9068 7.86872 41.6975 7.21231C42.4883 6.53949 43.2959 5.85846 44.1203 5.16923C44.5073 4.84103 44.9027 4.52103 45.3065 4.20923C45.7271 3.88102 46.1477 3.55282 46.5683 3.22461C46.8712 2.99487 47.174 2.76513 47.4769 2.53538C47.7966 2.28923 48.1078 2.02667 48.4107 1.74769C48.5116 1.66564 48.6041 1.57538 48.6883 1.47692C48.7892 1.36205 48.8902 1.2882 48.9911 1.25538C49.1257 1.17333 49.3024 1.1241 49.5211 1.10769C49.7398 1.09128 49.9249 1.09128 50.0763 1.10769C50.3119 1.15692 50.5138 1.2882 50.682 1.50154C50.8503 1.69846 50.9512 1.89538 50.9849 2.09231C51.0353 2.4041 50.9596 2.65026 50.7577 2.83077C50.5726 3.01128 50.396 3.16718 50.2277 3.29846C49.5716 3.84 48.8649 4.35692 48.1078 4.84923C47.3675 5.34154 46.6525 5.85026 45.9626 6.37538C45.3738 6.85128 44.7849 7.31897 44.196 7.77846C43.6072 8.22154 43.0183 8.67282 42.4294 9.13231C42.3453 9.21436 42.2444 9.29641 42.1266 9.37846C42.0256 9.4441 41.9331 9.51795 41.849 9.6C41.7312 9.68205 41.6218 9.7559 41.5209 9.82154C41.4199 9.87077 41.3358 9.95282 41.2685 10.0677C41.1507 10.1169 41.0498 10.1826 40.9657 10.2646C40.8815 10.3303 40.7974 10.3877 40.7133 10.4369C40.6292 10.5026 40.545 10.5682 40.4609 10.6338C40.3936 10.6995 40.3179 10.7733 40.2338 10.8554C40.6039 11.7908 41.0246 12.6605 41.4956 13.4646C41.9836 14.2523 42.4547 15.0646 42.9089 15.9015C42.9594 15.9836 43.0099 16.0738 43.0604 16.1723C43.1108 16.2708 43.1613 16.361 43.2118 16.4431C43.2623 16.5415 43.3632 16.7303 43.5146 17.0092C43.666 17.2718 43.8007 17.5262 43.9184 17.7723C44.053 18.0349 44.1371 18.2482 44.1708 18.4123C44.2213 18.5764 44.1624 18.601 43.9941 18.4862C43.9268 18.519 43.868 18.5272 43.8175 18.5108C43.7838 18.4944 43.7418 18.4862 43.6913 18.4862C43.624 18.4205 43.5483 18.3877 43.4642 18.3877C43.3632 18.2728 43.2791 18.1497 43.2118 18.0185C43.1445 17.9036 43.0604 17.7805 42.9594 17.6492C42.5724 17.239 42.2275 16.7713 41.9247 16.2462C41.6387 15.721 41.3274 15.2369 40.9909 14.7938C41.176 15.1549 41.4031 15.5323 41.6723 15.9262C41.5882 15.8441 41.5125 15.7621 41.4452 15.68C41.3947 15.5815 41.3274 15.4913 41.2433 15.4092C41.2096 15.3272 41.1591 15.2451 41.0919 15.1631C41.0246 15.0646 40.9657 14.9662 40.9152 14.8677C40.7806 14.6872 40.6712 14.4985 40.5871 14.3015C40.503 14.1046 40.3768 13.9323 40.2085 13.7846C40.0739 13.5385 39.9478 13.3005 39.83 13.0708C39.7122 12.841 39.5608 12.6359 39.3757 12.4554C39.3925 12.521 39.4094 12.5703 39.4262 12.6031C39.4598 12.6359 39.4851 12.6769 39.5019 12.7262C39.401 12.6113 39.3084 12.48 39.2243 12.3323C39.157 12.1846 39.0813 12.0697 38.9972 11.9877C38.2905 12.6113 37.5839 13.2431 36.8772 13.8831C36.1706 14.5067 35.4639 15.1467 34.7573 15.8031C34.4208 16.1313 34.0843 16.4677 33.7478 16.8123C33.4113 17.1569 33.0748 17.4933 32.7383 17.8215C32.4018 18.1497 32.0653 18.4862 31.7288 18.8308C31.3923 19.1754 31.0727 19.5364 30.7698 19.9138C30.753 19.9303 30.7278 19.9385 30.6941 19.9385C30.6773 19.9549 30.652 19.9795 30.6184 20.0123C30.4838 20.1272 30.366 20.2421 30.2651 20.3569C30.1473 20.4882 30.0211 20.6113 29.8865 20.7262L29.7603 20.8C29.7267 20.8492 29.693 20.8903 29.6594 20.9231C29.6257 20.9723 29.5921 21.0215 29.5584 21.0708C29.5921 21.0379 29.6257 21.0051 29.6594 20.9723C29.6762 20.9559 29.7014 20.9231 29.7351 20.8738C29.7351 20.9231 29.7098 20.9723 29.6594 21.0215C29.5921 21.0708 29.5416 21.12 29.508 21.1692C29.2724 21.2677 29.1042 21.4236 29.0032 21.6369C28.8854 21.8503 28.7088 22.0226 28.4732 22.1538C28.3891 22.2687 28.305 22.3754 28.2208 22.4738C28.1367 22.5723 28.061 22.6708 27.9937 22.7692C27.8255 22.9169 27.674 23.0728 27.5394 23.2369C27.388 23.401 27.2198 23.5487 27.0347 23.68L26.8833 23.8769C26.8496 23.8605 26.816 23.8441 26.7823 23.8277C26.7487 23.8113 26.715 23.8113 26.6814 23.8277C26.6477 23.8441 26.6141 23.8687 26.5804 23.9015C26.5468 23.9344 26.5047 23.9672 26.4542 24C26.4038 23.9508 26.3449 23.9015 26.2776 23.8523C26.2103 23.8195 26.1093 23.8195 25.9747 23.8523C26.0084 23.6718 26.0673 23.5159 26.1514 23.3846C26.2355 23.2533 26.3196 23.1056 26.4038 22.9415C26.572 22.6626 26.7319 22.441 26.8833 22.2769C27.0347 22.0636 27.1861 21.8503 27.3375 21.6369C27.4721 21.44 27.632 21.2513 27.8171 21.0708C27.8507 21.0215 27.918 20.9805 28.019 20.9477L28.5742 20.2092C29.264 19.4215 29.9622 18.6338 30.6689 17.8462C31.3755 17.0585 32.1074 16.279 32.8645 15.5077C33.302 15.081 33.7226 14.6462 34.1264 14.2031C34.547 13.76 34.976 13.3333 35.4135 12.9231C35.8509 12.5128 36.2884 12.0944 36.7258 11.6677C37.1632 11.241 37.6175 10.8308 38.0886 10.4369C38.055 10.4041 38.0381 10.3549 38.0381 10.2892C38.0381 10.2072 37.9961 10.1579 37.912 10.1415C37.9456 10.1087 37.954 10.0841 37.9372 10.0677C37.8867 10.0349 37.8362 10.0021 37.7858 9.96923C37.7521 9.93641 37.7942 9.94461 37.912 9.99384Z" fill="white"/>
</svg>
